<svg width="26" height="26" viewBox="0 0 26 26" fill="none" xmlns="http://www.w3.org/2000/svg">
<g clip-path="url(#clip0_146_285)">
<path d="M21.2502 23.7316H4.74983C3.38208 23.7316 2.26831 22.619 2.26831 21.2501V4.74861C2.26831 3.38086 3.38092 2.26709 4.74983 2.26709H21.2513C21.9142 2.26709 22.5375 2.52573 23.0059 2.99407C23.4742 3.46241 23.7328 4.0857 23.7317 4.74861V21.2501C23.7317 22.6179 22.6191 23.7316 21.2502 23.7316ZM4.74983 4.60181C4.66944 4.60181 4.60303 4.66705 4.60303 4.74861V21.2501C4.60303 21.3305 4.66827 21.3969 4.74983 21.3969H21.2513C21.3317 21.3969 21.3981 21.3317 21.3981 21.2501V4.74861C21.3981 4.70783 21.3841 4.67288 21.355 4.64492C21.3259 4.61696 21.2921 4.60181 21.2513 4.60181H4.74983Z" fill="#FD7C47"/>
<path d="M7.59712 18.1323C7.45848 18.1323 7.31868 18.1078 7.18237 18.0554C6.58005 17.8259 6.27714 17.1514 6.50665 16.549L9.48214 8.73633C9.48563 8.72701 9.48913 8.71886 9.49262 8.70954C9.7 8.20159 10.1893 7.87305 10.7369 7.87305H10.7392C11.2868 7.87305 11.7761 8.20042 11.9846 8.70721C11.9893 8.71769 11.9939 8.72934 11.9974 8.73983L14.9461 16.5525C15.1733 17.156 14.8692 17.8294 14.2658 18.0566C13.6623 18.2849 12.9889 17.9797 12.7617 17.3762L10.7345 12.0066L8.68759 17.3797C8.5105 17.8457 8.06663 18.1323 7.59595 18.1323H7.59712Z" fill="#FD7C47"/>
<path d="M12.9412 16.1868H8.52576C7.8815 16.1868 7.3584 15.6637 7.3584 15.0194C7.3584 14.3751 7.8815 13.8521 8.52576 13.8521H12.9412C13.5855 13.8521 14.1086 14.3751 14.1086 15.0194C14.1086 15.6637 13.5855 16.1868 12.9412 16.1868Z" fill="#FD7C47"/>
<path d="M17.6373 18.1326C16.9931 18.1326 16.47 17.6095 16.47 16.9652V9.04187C16.47 8.39761 16.9931 7.87451 17.6373 7.87451C18.2816 7.87451 18.8047 8.39761 18.8047 9.04187V16.9652C18.8047 17.6095 18.2816 18.1326 17.6373 18.1326Z" fill="#FD7C47"/>
<path d="M7.32459 4.60187C6.68033 4.60187 6.15723 4.07877 6.15723 3.43451V1.16736C6.15723 0.523099 6.68033 0 7.32459 0C7.96885 0 8.49195 0.523099 8.49195 1.16736V3.43568C8.49195 4.07994 7.96885 4.60304 7.32459 4.60304V4.60187Z" fill="#FD7C47"/>
<path d="M12.9994 4.60187C12.3551 4.60187 11.832 4.07877 11.832 3.43451V1.16736C11.832 0.523099 12.3551 0 12.9994 0C13.6437 0 14.1668 0.523099 14.1668 1.16736V3.43568C14.1668 4.07994 13.6437 4.60304 12.9994 4.60304V4.60187Z" fill="#FD7C47"/>
<path d="M18.6754 4.60187C18.0312 4.60187 17.5081 4.07877 17.5081 3.43451V1.16736C17.5081 0.523099 18.0312 0 18.6754 0C19.3197 0 19.8428 0.523099 19.8428 1.16736V3.43568C19.8428 4.07994 19.3197 4.60304 18.6754 4.60304V4.60187Z" fill="#FD7C47"/>
<path d="M7.32459 26C6.68033 26 6.15723 25.4769 6.15723 24.8326V22.5643C6.15723 21.9201 6.68033 21.397 7.32459 21.397C7.96885 21.397 8.49195 21.9201 8.49195 22.5643V24.8326C8.49195 25.4769 7.96885 26 7.32459 26Z" fill="#FD7C47"/>
<path d="M12.9994 26C12.3551 26 11.832 25.4769 11.832 24.8326V22.5643C11.832 21.9201 12.3551 21.397 12.9994 21.397C13.6437 21.397 14.1668 21.9201 14.1668 22.5643V24.8326C14.1668 25.4769 13.6437 26 12.9994 26Z" fill="#FD7C47"/>
<path d="M18.6754 26C18.0312 26 17.5081 25.4769 17.5081 24.8326V22.5643C17.5081 21.9201 18.0312 21.397 18.6754 21.397C19.3197 21.397 19.8428 21.9201 19.8428 22.5643V24.8326C19.8428 25.4769 19.3197 26 18.6754 26Z" fill="#FD7C47"/>
<path d="M3.43568 19.843H1.16736C0.523099 19.843 0 19.3199 0 18.6757C0 18.0314 0.523099 17.5083 1.16736 17.5083H3.43568C4.07994 17.5083 4.60304 18.0314 4.60304 18.6757C4.60304 19.3199 4.07994 19.843 3.43568 19.843Z" fill="#FD7C47"/>
<path d="M3.43568 14.1668H1.16736C0.523099 14.1668 0 13.6437 0 12.9994C0 12.3551 0.523099 11.832 1.16736 11.832H3.43568C4.07994 11.832 4.60304 12.3551 4.60304 12.9994C4.60304 13.6437 4.07994 14.1668 3.43568 14.1668Z" fill="#FD7C47"/>
<path d="M3.43568 8.49195H1.16736C0.523099 8.49195 0 7.96885 0 7.32459C0 6.68033 0.523099 6.15723 1.16736 6.15723H3.43568C4.07994 6.15723 4.60304 6.68033 4.60304 7.32459C4.60304 7.96885 4.07994 8.49195 3.43568 8.49195Z" fill="#FD7C47"/>
<path d="M24.8326 19.843H22.5643C21.9201 19.843 21.397 19.3199 21.397 18.6757C21.397 18.0314 21.9201 17.5083 22.5643 17.5083H24.8326C25.4769 17.5083 26 18.0314 26 18.6757C26 19.3199 25.4769 19.843 24.8326 19.843Z" fill="#FD7C47"/>
<path d="M24.8326 14.1668H22.5643C21.9201 14.1668 21.397 13.6437 21.397 12.9994C21.397 12.3551 21.9201 11.832 22.5643 11.832H24.8326C25.4769 11.832 26 12.3551 26 12.9994C26 13.6437 25.4769 14.1668 24.8326 14.1668Z" fill="#FD7C47"/>
<path d="M24.8326 8.49195H22.5643C21.9201 8.49195 21.397 7.96885 21.397 7.32459C21.397 6.68033 21.9201 6.15723 22.5643 6.15723H24.8326C25.4769 6.15723 26 6.68033 26 7.32459C26 7.96885 25.4769 8.49195 24.8326 8.49195Z" fill="#FD7C47"/>
</g>
<defs>
<clipPath id="clip0_146_285">
<rect width="26" height="26" fill="white"/>
</clipPath>
</defs>
</svg>
