<svg width="24" height="24" viewBox="0 0 24 24" fill="none" xmlns="http://www.w3.org/2000/svg">
<path d="M14.5168 0.937762L14.5113 0.932405C14.4103 0.828276 14.271 0.770017 14.1257 0.771691C14.1078 0.770854 14.0897 0.772528 14.0722 0.777216H5.84562C4.36688 0.777551 3.16839 1.97621 3.16772 3.45511V20.5936C3.16839 22.0723 4.36688 23.2709 5.84562 23.2714H17.7731C19.2518 23.2709 20.4505 22.0723 20.451 20.5936V7.08607C20.45 6.94427 20.3944 6.80817 20.2956 6.70605L14.5168 0.937762ZM14.6613 2.59814L18.6353 6.5614H16.2681C15.3818 6.55873 14.6638 5.84087 14.6613 4.95477V2.59814ZM17.7784 22.195H5.84562C4.95935 22.1925 4.24166 21.4745 4.23881 20.5882V3.44958C4.24166 2.56348 4.95935 1.84546 5.84562 1.84295H13.5902V4.95477C13.5907 6.43334 14.7893 7.63199 16.2681 7.63266H19.3799V20.5882C19.3816 21.4741 18.6644 22.1938 17.7784 22.195Z" fill="#FD7C47" stroke="#FD7C47" stroke-width="0.8"/>
<path d="M6.60073 11.1082H12.3904C12.6861 11.1082 12.9262 10.8685 12.9262 10.5727C12.9262 10.2768 12.6861 10.0371 12.3904 10.0371H6.60073C6.30492 10.0371 6.06519 10.2768 6.06519 10.5727C6.06519 10.8685 6.30492 11.1082 6.60073 11.1082Z" fill="#FD7C47" stroke="#FD7C47" stroke-width="0.8"/>
<path d="M17.0232 14.0864H6.60073C6.30492 14.0864 6.06519 14.3262 6.06519 14.622C6.06519 14.9176 6.30492 15.1575 6.60073 15.1575H17.0232C17.3188 15.1575 17.5589 14.9176 17.5589 14.622C17.5589 14.3262 17.3188 14.0864 17.0232 14.0864Z" fill="#FD7C47" stroke="#FD7C47" stroke-width="0.8"/>
<path d="M17.0232 18.1406H6.60073C6.30492 18.1406 6.06519 18.3804 6.06519 18.6762C6.06519 18.972 6.30492 19.2117 6.60073 19.2117H17.0232C17.3188 19.2117 17.5589 18.972 17.5589 18.6762C17.5589 18.3804 17.3188 18.1406 17.0232 18.1406Z" fill="#FD7C47" stroke="#FD7C47" stroke-width="0.8"/>
</svg>
