<?xml version="1.0" encoding="UTF-8"?><svg id="Layer_2" xmlns="http://www.w3.org/2000/svg" xmlns:xlink="http://www.w3.org/1999/xlink" viewBox="0 0 3074.97 349.85"><defs><style>.cls-1{letter-spacing:.02em;}.cls-2{letter-spacing:.03em;}.cls-3{clip-path:url(#clippath);}.cls-4{font-family:Inter-Bold, Inter;font-size:198.44px;font-weight:700;}.cls-5{letter-spacing:0em;}.cls-6{letter-spacing:0em;}.cls-7{letter-spacing:-.06em;}.cls-8{fill-rule:evenodd;}.cls-9{letter-spacing:0em;}.cls-10{clip-rule:evenodd;}</style><clipPath id="clippath"><path class="cls-10" d="m184.24,211.88c58.27,0,105.94-47.67,105.94-105.94S242.51,0,184.24,0h-106.86c-3.64,0-7.23.19-10.78.55C29.1,5.84,0,38.27,0,77.18v195.3c0,42.56,34.82,77.38,77.38,77.38s77.38-34.82,77.38-77.38V77.18c0-12.94-3.22-25.16-8.89-35.91h38.37c35.57,0,64.67,29.1,64.67,64.67s-29.1,64.67-64.67,64.67v41.27Zm-70.75-41.27v101.86c0,19.86-16.25,36.11-36.11,36.11s-36.11-16.25-36.11-36.11V77.18c0-17.91,13.21-32.88,30.36-35.65,1.87-.3,3.8-.46,5.75-.46,1.3,0,2.59.07,3.85.21,18.07,1.94,32.26,17.34,32.26,35.91v93.43Z"/></clipPath></defs><g id="Layer_1-2"><path class="cls-8" d="m184.24,211.88c58.27,0,105.94-47.67,105.94-105.94S242.51,0,184.24,0h-106.86c-3.64,0-7.23.19-10.78.55C29.1,5.84,0,38.27,0,77.18v195.3c0,42.56,34.82,77.38,77.38,77.38s77.38-34.82,77.38-77.38V77.18c0-12.94-3.22-25.16-8.89-35.91h38.37c35.57,0,64.67,29.1,64.67,64.67s-29.1,64.67-64.67,64.67v41.27Zm-70.75-41.27v101.86c0,19.86-16.25,36.11-36.11,36.11s-36.11-16.25-36.11-36.11V77.18c0-17.91,13.21-32.88,30.36-35.65,1.87-.3,3.8-.46,5.75-.46,1.3,0,2.59.07,3.85.21,18.07,1.94,32.26,17.34,32.26,35.91v93.43Z"/><g class="cls-3"><rect width="290.18" height="349.85"/></g><text class="cls-4" transform="translate(395.18 248.69)"><tspan class="cls-7" x="0" y="0">P</tspan><tspan class="cls-1" x="116.79" y="0">ARAPHR</tspan><tspan class="cls-5" x="980.4" y="0">A</tspan><tspan class="cls-2" x="1130.38" y="0">SIN</tspan><tspan class="cls-9" x="1476.73" y="0">G</tspan><tspan class="cls-6" x="1626.43" y="0">T</tspan><tspan class="cls-2" x="1757.6" y="0">OOL.APP</tspan></text></g></svg>